<svg width="29" height="29" viewBox="0 0 29 29" fill="none" xmlns="http://www.w3.org/2000/svg">
<path d="M19.6929 18.0795L18.1255 14.1433L17.7719 13.2712C17.7248 13.1298 17.766 12.9235 17.8721 12.8174L19.6752 11.0143C20.2409 10.4486 20.4943 9.35852 20.2468 8.59248C20.1584 8.32732 19.9463 8.11519 19.6811 8.0268C18.921 7.78521 17.825 8.04448 17.2593 8.61016L15.4562 10.4133C15.3501 10.5194 15.1439 10.5606 15.0024 10.5135L10.2 8.59838C9.67557 8.38035 8.90953 8.54534 8.50884 8.94604L7.73102 9.72386C7.23016 10.2247 7.35979 10.8493 8.02565 11.1145L12.2506 12.7939C12.5806 12.9235 12.6454 13.2358 12.392 13.4892L11.738 14.1433L10.6773 15.2039C10.5418 15.3395 10.2707 15.4573 10.0822 15.4573L7.34212 15.4632C7.05927 15.4632 6.7175 15.6753 6.58197 15.9405L6.04575 17.0071C5.80416 17.4608 6.03397 18.0206 6.52305 18.1797L9.10399 18.4036C9.49879 18.4331 9.84645 18.7807 9.87591 19.1755L10.0998 21.7565C10.2648 22.2396 10.8187 22.4753 11.2842 22.2455L12.3508 21.7093C12.6101 21.5797 12.8281 21.232 12.8281 20.9492L12.834 18.2091C12.8281 18.0147 12.9459 17.7436 13.0815 17.6081L14.7962 15.8934C15.0496 15.64 15.3501 15.7048 15.4915 16.0348L17.1709 20.2597C17.4361 20.9256 18.0607 21.0552 18.5615 20.5544L19.3394 19.7766C19.7401 19.3759 19.905 18.6098 19.6929 18.0795Z" fill="white"/>
</svg>
