<svg width="24" height="25" viewBox="0 0 24 25" fill="none" xmlns="http://www.w3.org/2000/svg">
<path d="M17.0806 11.6642L20.9593 11.6668C21.7318 11.6672 23.2778 11.8974 23.2772 12.8145C23.2766 13.7316 21.7307 13.9579 20.9579 13.9564L17.078 13.9526L11.1983 21.7416C11.0915 21.882 10.9297 21.9649 10.7562 21.9647L10.0131 21.964C9.61923 21.9636 9.34755 21.5528 9.48844 21.1693L12.1338 13.9477L9.38627 13.945L6.98529 16.4435C6.87973 16.5534 6.73786 16.6156 6.58782 16.6154L6.18461 16.615C5.78723 16.6158 5.51556 16.1953 5.66349 15.8118L6.65748 12.7987L5.66722 9.78365C5.51978 9.39986 5.79081 8.98106 6.18935 8.98145L6.5914 8.98063C6.74025 8.98201 6.88322 9.04324 6.98864 9.1533L9.38651 11.6566L12.1341 11.6593L9.49884 4.43369C9.35842 4.04992 9.63061 3.63967 10.0245 3.64006L10.7676 3.6408C10.9399 3.63975 11.1028 3.72421 11.2094 3.86482L17.0806 11.6642Z" fill="#1E2358"/>
</svg>
